<?xml version="1.0" encoding="utf-8"?>
<!-- Generator: Adobe Illustrator 18.1.1, SVG Export Plug-In . SVG Version: 6.00 Build 0)  -->
<svg version="1.1" id="Layer_1" xmlns="http://www.w3.org/2000/svg" xmlns:xlink="http://www.w3.org/1999/xlink" x="0px" y="0px"
	 viewBox="0 0 502 595.3" enable-background="new 0 0 502 595.3" xml:space="preserve">
<g display="none">
	<path display="inline" fill="#3E6889" d="M716.4,1210.3V1338h-26.8v-119.5l-65.9-39.1l-65.9,39.1V1338H531v-127.7
		c0-4.1,2.1-8.2,6.2-12.4l80.3-47.4c4.1-2.1,10.3-2.1,14.4,0l80.3,47.4C714.3,1200,716.4,1204.1,716.4,1210.3z M666.9,1235
		c2.1,6.2,2.1,12.4,2.1,18.5c0,6.2,0,12.4-2.1,18.5c0,2.1-4.1,4.1-6.2,4.1h-76.2c-4.1,0-6.2-2.1-6.2-4.1c-2.1-6.2-2.1-12.4-2.1-18.5
		c0-6.2,0-12.4,2.1-18.5c0-2.1,4.1-4.1,6.2-4.1h76.2C662.8,1230.9,666.9,1233,666.9,1235z M666.9,1294.8c2.1,6.2,2.1,12.4,2.1,18.5
		c0,6.2,0,12.4-2.1,18.5c0,2.1-4.1,4.1-6.2,4.1h-76.2c-4.1,0-6.2-2.1-6.2-4.1c-2.1-6.2-2.1-12.4-2.1-18.5c0-6.2,0-12.4,2.1-18.5
		c0-2.1,4.1-4.1,6.2-4.1h76.2C662.8,1290.6,666.9,1292.7,666.9,1294.8z"/>
</g>
<path opacity="0.65" fill="#FFFFFF" stroke="#B5B5B5" stroke-width="5" stroke-miterlimit="10" d="M424.6,73.1
	c-96.8-96.8-251.2-94.7-348,0s-96.8,251.2,0,348l173,173l175-175C519.3,324.3,519.3,169.8,424.6,73.1z"/>
<g opacity="0.6">
	<circle fill="#FFFFFF" stroke="#CCCCCC" stroke-width="5" stroke-miterlimit="10" cx="249.6" cy="245.8" r="195.7"/>
	<circle fill="#FFFFFF" stroke="#CCCCCC" stroke-width="5" stroke-miterlimit="10" cx="249.6" cy="245.8" r="195.7"/>
	<circle opacity="0" fill="#FFFFFF" stroke="#CCCCCC" stroke-width="5" stroke-miterlimit="10" cx="249.6" cy="245.8" r="185.1"/>
</g>
<g enable-background="new    ">
	<path fill="#235F87" d="M304,142.2c3.4-2.9,8.5-2.5,11.2,0.9l10.8,12.6c2.9,3.4,2.5,8.5-0.9,11.5l-47.2,39.5l68.1,0
		c2.5,0,4.7,0.9,6.3,2.7c1.8,1.8,2.7,4.3,2.7,6.7c0,1.6-1.1,40.9-9,71.2c-7.9,30.1-17.1,49.9-17.5,50.8c-1.6,3.1-4.7,5.2-8.1,5.2
		l-146.7,0c-3.6,0-6.7-2-8.1-5.2c-0.4-0.9-9.9-20.7-17.5-50.8c-7.6-29.2-8.8-69.6-8.8-71.2c0-2.5,0.4-4.9,2.2-6.7
		c1.6-1.8,3.8-2.7,6.3-2.7l64,0c-1.6,7.9-0.2,16.4,4.7,21.8c5.4,6.3,14.2,8.3,23.4,6.7c-7.9-1.8-13.9-9-13.9-17.3
		c0-6.3,3.4-12.6,8.1-15.7L304,142.2z M206.9,307.3l-4.9-57.5l-26.7,0c1.1,9.2,2.9,19.8,5.2,28.3c3.4,13,7,21.6,9.9,29.2H206.9z
		 M255.5,307.3l4.7-57.5l-25.6,0l4.7,57.5L255.5,307.3z M303.5,307.3c2.9-7.6,6.7-16.2,10.1-29.2c2.2-8.8,3.8-19.1,4.9-28.3l-26.1,0
		l-4.7,57.5H303.5z"/>
</g>
</svg>
