<?xml version="1.0" encoding="utf-8"?>
<svg id="Layer_1" x="0px" y="0px" viewBox="139.3 140.3 215.7 203" xmlns="http://www.w3.org/2000/svg">
  <defs>
    <style id="bx-google-fonts">@import url(https://fonts.googleapis.com/css?family=Roboto:100,300,500,700,900,100italic,300italic,400,400italic,500italic,700italic,900italic);</style>
  </defs>
  <g display="none">
    <path display="inline" fill="#3E6889" d="M716.4,1210.3V1338h-26.8v-119.5l-65.9-39.1l-65.9,39.1V1338H531v-127.7&#10;&#9;&#9;c0-4.1,2.1-8.2,6.2-12.4l80.3-47.4c4.1-2.1,10.3-2.1,14.4,0l80.3,47.4C714.3,1200,716.4,1204.1,716.4,1210.3z M666.9,1235&#10;&#9;&#9;c2.1,6.2,2.1,12.4,2.1,18.5c0,6.2,0,12.4-2.1,18.5c0,2.1-4.1,4.1-6.2,4.1h-76.2c-4.1,0-6.2-2.1-6.2-4.1c-2.1-6.2-2.1-12.4-2.1-18.5&#10;&#9;&#9;c0-6.2,0-12.4,2.1-18.5c0-2.1,4.1-4.1,6.2-4.1h76.2C662.8,1230.9,666.9,1233,666.9,1235z M666.9,1294.8c2.1,6.2,2.1,12.4,2.1,18.5&#10;&#9;&#9;c0,6.2,0,12.4-2.1,18.5c0,2.1-4.1,4.1-6.2,4.1h-76.2c-4.1,0-6.2-2.1-6.2-4.1c-2.1-6.2-2.1-12.4-2.1-18.5c0-6.2,0-12.4,2.1-18.5&#10;&#9;&#9;c0-2.1,4.1-4.1,6.2-4.1h76.2C662.8,1290.6,666.9,1292.7,666.9,1294.8z"/>
  </g>
  <text x="229.5" y="307.693" style="fill: rgb(216, 43, 43); font-size: 200px; white-space: pre;">!</text>
</svg>