<?xml version="1.0" encoding="utf-8"?>
<!-- Generator: Adobe Illustrator 13.0.2, SVG Export Plug-In . SVG Version: 6.00 Build 14948)  -->
<!DOCTYPE svg PUBLIC "-//W3C//DTD SVG 1.1//EN" "http://www.w3.org/Graphics/SVG/1.1/DTD/svg11.dtd">
<svg version="1.1" id="Layer_1" xmlns="http://www.w3.org/2000/svg" xmlns:xlink="http://www.w3.org/1999/xlink" x="0px" y="0px"
	 width="23.929px" height="28.854px" viewBox="29.432 35.073 23.929 28.854" enable-background="new 29.432 35.073 23.929 28.854"
	 xml:space="preserve">
<path fill="#FFFFFF" d="M49.867,38.561c-4.678-4.676-12.234-4.639-16.911,0.038s-4.71,12.25-0.033,16.928l8.45,8.399l8.468-8.468
	C54.519,50.783,54.542,43.238,49.867,38.561z"/>
<path fill="#DC6425" d="M48.718,39.903c-4.043-4.042-10.574-4.01-14.616,0.033c-4.042,4.042-4.071,10.588-0.029,14.63l7.304,7.262
	l7.318-7.319C52.738,50.467,52.76,43.946,48.718,39.903z"/>
<circle fill="#FFFFFF" cx="41.375" cy="47.351" r="8.516"/>
<g>
	<path fill="#DC6425" d="M38.974,52.132c-1.254,0-2.266-1.012-2.266-2.266S37.72,47.6,38.974,47.6s2.266,1.012,2.266,2.266
		S40.229,52.132,38.974,52.132z M42.616,49.866h-0.708c0-0.01,0.01-0.02,0.01-0.03c0-1.608-1.335-2.954-2.944-2.954
		c-0.749,0-1.396,0.253-1.912,0.718l0.293-4.138c0.02-0.304,0.253-0.557,0.557-0.597c0.667-0.091,1.274-0.132,1.871-0.122
		c0.496,0.01,0.981,0.051,1.457,0.122c0.253,0.04,0.455,0.222,0.526,0.455l0.648,2.195c3.398,0.375,3.5,0.981,3.54,1.366
		c0.041,0.405,0.092,1.153,0.132,1.7c-0.354-0.233-0.819-0.364-1.285-0.364C43.74,48.217,42.879,48.895,42.616,49.866z
		 M38.974,50.897c0.566,0,1.032-0.465,1.032-1.032s-0.465-1.032-1.032-1.032s-1.032,0.465-1.032,1.032S38.408,50.897,38.974,50.897z
		 M41.2,45.981l-0.556-1.922c-0.344-0.04-0.698-0.05-1.052-0.05c-0.324,0-0.647,0.01-0.981,0.05l-0.152,1.922H41.2z M46.42,50.513
		c0,0.911-0.708,1.619-1.619,1.619c-0.91,0-1.618-0.708-1.618-1.619c0-0.91,0.708-1.618,1.618-1.618
		C45.712,48.895,46.42,49.603,46.42,50.513z M45.469,50.513c0-0.374-0.293-0.667-0.668-0.667c-0.374,0-0.667,0.293-0.667,0.667
		c0,0.375,0.293,0.668,0.667,0.668C45.176,51.181,45.469,50.888,45.469,50.513z"/>
</g>
</svg>
