<?xml version="1.0" encoding="utf-8"?>
<!-- Generator: Adobe Illustrator 13.0.2, SVG Export Plug-In . SVG Version: 6.00 Build 14948)  -->
<!DOCTYPE svg PUBLIC "-//W3C//DTD SVG 1.1//EN" "http://www.w3.org/Graphics/SVG/1.1/DTD/svg11.dtd">
<svg version="1.1" id="Layer_1" xmlns="http://www.w3.org/2000/svg" xmlns:xlink="http://www.w3.org/1999/xlink" x="0px" y="0px"
	 width="23.929px" height="28.854px" viewBox="29.432 35.073 23.929 28.854" enable-background="new 29.432 35.073 23.929 28.854"
	 xml:space="preserve">
<path fill="#FFFFFF" d="M49.867,38.561c-4.678-4.676-12.234-4.639-16.911,0.038s-4.71,12.25-0.033,16.928l8.45,8.399l8.468-8.468
	C54.519,50.783,54.542,43.238,49.867,38.561z"/>
<path fill="#3E6889" d="M48.718,39.903c-4.043-4.042-10.574-4.01-14.616,0.033c-4.042,4.042-4.071,10.588-0.029,14.63l7.304,7.262
	l7.318-7.319C52.738,50.467,52.76,43.946,48.718,39.903z"/>
<circle fill="#FFFFFF" cx="41.375" cy="47.351" r="8.516"/>
<g>
	<path fill="#3E6889" d="M46.096,44.94v6.191h-1.295v-5.776l-3.237-1.892l-3.237,1.892v5.776h-1.295V44.94
		c0-0.232,0.122-0.445,0.324-0.556l3.875-2.266c0.203-0.122,0.456-0.122,0.658,0l3.885,2.266
		C45.975,44.495,46.096,44.708,46.096,44.94z M43.719,46.195c0.071,0.293,0.111,0.597,0.111,0.89c0,0.293-0.04,0.597-0.111,0.891
		c-0.04,0.142-0.172,0.243-0.323,0.243h-3.673c-0.152,0-0.273-0.101-0.313-0.243c-0.081-0.304-0.111-0.597-0.111-0.891
		c0-0.303,0.041-0.597,0.111-0.89c0.041-0.142,0.162-0.243,0.313-0.243h3.673C43.547,45.952,43.679,46.053,43.719,46.195z
		 M43.719,49.108c0.071,0.293,0.111,0.597,0.111,0.891c0,0.293-0.04,0.597-0.111,0.89c-0.04,0.142-0.172,0.243-0.323,0.243h-3.673
		c-0.152,0-0.273-0.102-0.313-0.243c-0.071-0.293-0.111-0.597-0.111-0.89c0-0.293,0.041-0.597,0.111-0.891
		c0.041-0.142,0.162-0.243,0.313-0.243h3.673C43.547,48.866,43.679,48.967,43.719,49.108z"/>
</g>
</svg>
