<?xml version="1.0" encoding="utf-8"?>
<!-- Generator: Adobe Illustrator 20.1.0, SVG Export Plug-In . SVG Version: 6.00 Build 0)  -->
<svg version="1.1" id="Layer_1" xmlns="http://www.w3.org/2000/svg" xmlns:xlink="http://www.w3.org/1999/xlink" x="0px" y="0px"
	 viewBox="0 0 502 595.3" style="enable-background:new 0 0 502 595.3;" xml:space="preserve">
<style type="text/css">
	.st0{display:none;}
	.st1{display:inline;fill:#3E6889;}
	.st2{opacity:0.65;fill:#FFFFFF;stroke:#B5B5B5;stroke-width:5;stroke-miterlimit:10;enable-background:new    ;}
	.st3{opacity:0.6;}
	.st4{fill:#FFFFFF;stroke:#CCCCCC;stroke-width:5;stroke-miterlimit:10;}
	.st5{fill:#FFFFFF;fill-opacity:0;}
	.st6{fill:#B22D69;}
</style>
<g class="st0">
	<path class="st1" d="M716.4,1210.3V1338h-26.8v-119.5l-65.9-39.1l-65.9,39.1V1338H531v-127.7c0-4.1,2.1-8.2,6.2-12.4l80.3-47.4
		c4.1-2.1,10.3-2.1,14.4,0l80.3,47.4C714.3,1200,716.4,1204.1,716.4,1210.3z M666.9,1235c2.1,6.2,2.1,12.4,2.1,18.5
		c0,6.2,0,12.4-2.1,18.5c0,2.1-4.1,4.1-6.2,4.1h-76.2c-4.1,0-6.2-2.1-6.2-4.1c-2.1-6.2-2.1-12.4-2.1-18.5c0-6.2,0-12.4,2.1-18.5
		c0-2.1,4.1-4.1,6.2-4.1h76.2C662.8,1230.9,666.9,1233,666.9,1235z M666.9,1294.8c2.1,6.2,2.1,12.4,2.1,18.5c0,6.2,0,12.4-2.1,18.5
		c0,2.1-4.1,4.1-6.2,4.1h-76.2c-4.1,0-6.2-2.1-6.2-4.1c-2.1-6.2-2.1-12.4-2.1-18.5c0-6.2,0-12.4,2.1-18.5c0-2.1,4.1-4.1,6.2-4.1
		h76.2C662.8,1290.6,666.9,1292.7,666.9,1294.8z"/>
</g>
<path class="st2" d="M424.6,73.1c-96.8-96.8-251.2-94.7-348,0s-96.8,251.2,0,348l173,173l175-175
	C519.3,324.3,519.3,169.8,424.6,73.1z"/>
<g class="st3">
	<circle class="st4" cx="249.6" cy="245.8" r="195.7"/>
	<circle class="st4" cx="249.6" cy="245.8" r="195.7"/>
	<circle class="st5" cx="249.6" cy="245.8" r="185.1"/>
</g>
<g>
	<path class="st6" d="M134.2,327.6c-2.3-0.2-4.3-1.6-5.5-3.4c-1.3-1.8-1.6-3.9-1.1-6.4c3.7-17.5,15.1-32.1,31-41.9
		c4.3-2.3,9.1-4.3,14.1-6.4c9.1-3.7,19.4-7.7,21.2-13.7c1.6-5-2.3-12.1-5.9-17.5c-17.3-27-20.5-50-9.1-68.8
		c8.7-14.6,24.4-23,41.7-23c17.5,0,33.1,8.5,41.9,23.1c11.4,18.9,8.2,41.9-9.1,68.7c-3.4,5.3-7.5,12.5-5.9,17.5
		c1.8,6.1,12.3,10.1,21.2,13.7c5,2.1,9.8,3.9,14.1,6.4c15.9,9.8,27.3,24.4,31.3,41.9c0.5,2.3,0,4.5-1.3,6.4
		c-1.3,1.8-3.2,3.2-5.5,3.4c-0.7,0.2-24.4,3.4-86.7,3.4C158.3,331,135,327.8,134.2,327.6z M380.5,290.2c-1.3,1.8-3.4,3.2-5.5,3.4
		c-0.5,0.2-13.7,2.1-45.6,2.9c-7.5-15.7-19.6-29.2-35.6-39c-5.5-3.2-11.4-5.5-17.3-7.7c-1.1-0.5-2.7-1.3-4.3-1.8
		c26.2-41.7,21.7-72.7,10.9-90.4c-7.5-12.5-15.3-20.7-28.1-26.5c9.1-11.7,17.5-18.5,33.1-18.5c17.5,0,32.9,8.5,41.7,23.1
		c11.4,18.9,8.5,41.9-8.7,68.7c-3.7,5.3-7.7,12.5-6.1,17.5c1.8,6.1,12.3,10.1,21.2,13.7c5.3,2.1,10.1,3.9,14.1,6.4
		c16.2,9.8,27.6,24.4,31.3,41.9C382.1,286.1,381.6,288.3,380.5,290.2z"/>
</g>
</svg>
