<?xml version="1.0" encoding="utf-8"?>
<!-- Generator: Adobe Illustrator 20.1.0, SVG Export Plug-In . SVG Version: 6.00 Build 0)  -->
<svg version="1.1" id="Layer_1" xmlns="http://www.w3.org/2000/svg" xmlns:xlink="http://www.w3.org/1999/xlink" x="0px" y="0px"
	 viewBox="0 0 211.1 213.2" style="enable-background:new 0 0 211.1 213.2;" xml:space="preserve">
<style type="text/css">
	.st0{display:none;}
	.st1{display:inline;fill:#DC6425;}
	.st2{fill:#B22D69;}
</style>
<g class="st0">
	<path class="st1" d="M570.1,1358.6c-26.8,0-47.4-20.6-47.4-47.4s20.6-47.4,47.4-47.4s47.4,20.6,47.4,47.4
		S594.8,1358.6,570.1,1358.6z M644.3,1311.2h-14.4l0,0c0-33-26.8-61.8-59.7-61.8c-14.4,0-28.8,6.2-39.1,14.4l6.2-84.5
		c0-6.2,6.2-12.4,12.4-12.4c14.4-2.1,26.8-2.1,39.1-2.1c10.3,0,20.6,2.1,30.9,2.1c6.2,0,10.3,4.1,10.3,10.3l12.4,45.3
		c70,8.2,72.1,20.6,72.1,28.8s2.1,24.7,2.1,35c-8.2-4.1-16.5-8.2-26.8-8.2C666.9,1276.2,650.5,1290.6,644.3,1311.2z M570.1,1331.8
		c12.4,0,20.6-10.3,20.6-20.6c0-12.4-10.3-20.6-20.6-20.6s-20.6,10.3-20.6,20.6C547.5,1323.6,557.8,1331.8,570.1,1331.8z
		 M615.4,1230.9l-12.4-39.1c-6.2,0-14.4,0-22.7,0c-6.2,0-12.4,0-20.6,0l-4.1,39.1H615.4z M722.5,1323.6c0,18.5-14.4,33-33,33
		s-33-14.4-33-33c0-18.5,14.4-33,33-33S722.5,1305.1,722.5,1323.6z M704,1323.6c0-8.2-6.2-14.4-14.4-14.4s-14.4,6.2-14.4,14.4
		c0,8.2,6.2,14.4,14.4,14.4S704,1331.8,704,1323.6z"/>
</g>
<g>
	<path class="st2" d="M-7.4,209.1c-2.2-0.2-4-1.5-5.2-3.2c-1.2-1.7-1.5-3.7-1-6c3.5-16.4,14.2-30.1,29.1-39.3c4-2.2,8.5-4,13.2-6
		c8.5-3.5,18.2-7.2,19.9-12.9c1.5-4.7-2.2-11.4-5.5-16.4C26.9,100,23.9,78.4,34.6,60.7C42.8,47,57.5,39.1,73.7,39.1
		c16.4,0,31.1,8,39.3,21.7c10.7,17.7,7.7,39.3-8.5,64.5c-3.2,5-7,11.7-5.5,16.4c1.7,5.7,11.5,9.5,19.9,12.9c4.7,2,9.2,3.7,13.2,6
		c14.9,9.2,25.6,22.9,29.4,39.3c0.5,2.2,0,4.2-1.2,6c-1.2,1.7-3,3-5.2,3.2c-0.7,0.2-22.9,3.2-81.4,3.2
		C15.2,212.3-6.7,209.3-7.4,209.1z M223.8,174c-1.2,1.7-3.2,3-5.2,3.2c-0.5,0.2-12.9,2-42.8,2.7c-7-14.7-18.4-27.4-33.4-36.6
		c-5.2-3-10.7-5.2-16.2-7.2c-1-0.5-2.5-1.2-4-1.7c24.6-39.1,20.4-68.2,10.2-84.9c-7-11.7-14.4-19.4-26.4-24.9
		c8.5-11,16.4-17.4,31.1-17.4c16.4,0,30.9,8,39.1,21.7c10.7,17.7,8,39.3-8.2,64.5c-3.5,5-7.2,11.7-5.7,16.4
		c1.7,5.7,11.5,9.5,19.9,12.9c5,2,9.5,3.7,13.2,6c15.2,9.2,25.9,22.9,29.4,39.3C225.3,170.2,224.8,172.2,223.8,174z"/>
</g>
</svg>
