<?xml version="1.0" encoding="utf-8"?>
<!-- Generator: Adobe Illustrator 18.1.1, SVG Export Plug-In . SVG Version: 6.00 Build 0)  -->
<svg version="1.1" id="Layer_1" xmlns="http://www.w3.org/2000/svg" xmlns:xlink="http://www.w3.org/1999/xlink" x="0px" y="0px"
	 viewBox="0 0 497.8 595.3" enable-background="new 0 0 497.8 595.3" xml:space="preserve">
<path opacity="0.65" fill="#FFFFFF" stroke="#B5B5B5" stroke-width="5" stroke-miterlimit="10" d="M424.7,74.3
	c-96.8-96.8-251.2-94.7-348,0s-96.8,251.2,0,348l173,173l175-175C519.4,325.5,519.4,171.1,424.7,74.3z"/>
<g opacity="0.6">
	<circle fill="#FFFFFF" stroke="#CCCCCC" stroke-width="5" stroke-miterlimit="10" cx="249.6" cy="247" r="195.7"/>
	<circle fill="#FFFFFF" stroke="#CCCCCC" stroke-width="5" stroke-miterlimit="10" cx="249.6" cy="247" r="195.7"/>
	<circle opacity="0" fill="#FFFFFF" stroke="#CCCCCC" stroke-width="5" stroke-miterlimit="10" cx="249.6" cy="247" r="185.1"/>
</g>
<g display="none">
	<path display="inline" fill="#DC6425" d="M570.1,1358.6c-26.8,0-47.4-20.6-47.4-47.4c0-26.8,20.6-47.4,47.4-47.4
		s47.4,20.6,47.4,47.4C617.5,1338,594.8,1358.6,570.1,1358.6z M644.3,1311.2h-14.4l0,0c0-33-26.8-61.8-59.7-61.8
		c-14.4,0-28.8,6.2-39.1,14.4l6.2-84.5c0-6.2,6.2-12.4,12.4-12.4c14.4-2.1,26.8-2.1,39.1-2.1c10.3,0,20.6,2.1,30.9,2.1
		c6.2,0,10.3,4.1,10.3,10.3l12.4,45.3c70,8.2,72.1,20.6,72.1,28.8s2.1,24.7,2.1,35c-8.2-4.1-16.5-8.2-26.8-8.2
		C666.9,1276.2,650.5,1290.6,644.3,1311.2z M570.1,1331.8c12.4,0,20.6-10.3,20.6-20.6c0-12.4-10.3-20.6-20.6-20.6
		s-20.6,10.3-20.6,20.6C547.5,1323.6,557.8,1331.8,570.1,1331.8z M615.4,1230.9l-12.4-39.1c-6.2,0-14.4,0-22.7,0
		c-6.2,0-12.4,0-20.6,0l-4.1,39.1H615.4z M722.5,1323.6c0,18.5-14.4,33-33,33s-33-14.4-33-33c0-18.5,14.4-33,33-33
		C708.1,1290.6,722.5,1305.1,722.5,1323.6z M704,1323.6c0-8.2-6.2-14.4-14.4-14.4c-8.2,0-14.4,6.2-14.4,14.4
		c0,8.2,6.2,14.4,14.4,14.4S704,1331.8,704,1323.6z"/>
</g>
<g>
	<path fill="#DC6425" d="M279.6,164.8L279.6,164.8L279.6,164.8L279.6,164.8z"/>
	<path fill="#DC6425" d="M300.7,210.5C302.5,210.5,298.8,212.3,300.7,210.5c-11.3-9.4-26.3-30-26.3-26.3c-16.9-9.4-39.4-9.4-62,11.3
		c11.3,3.8,26.3,9.4,39.4,24.4c1.9,1.9,1.9,5.6,0,7.5c-1.9,1.9-3.8,1.9-5.6,0c-7.5-3.8-26.3-16.9-50.7-9.4
		c-5.6,9.4-11.3,16.9-16.9,26.3c11.3,3.8,26.3,9.4,39.4,22.5c1.9,1.9,1.9,5.6,0,7.5c-1.9,1.9-3.8,1.9-5.6,0
		c-9.4-5.6-22.5-13.1-43.2-9.4c-7.5,15-13.1,28.2-18.8,43.2c-3.8,11.3-3.8,22.5,1.9,26.3c5.6,5.6,15,7.5,26.3,1.9
		c33.8-13.1,71.4-31.9,101.4-54.5C308.2,257.4,311.9,231.1,300.7,210.5z"/>
	<path fill="#34A750" d="M338.2,180.4c0,0,15-18.8,9.4-28.2c-7.5-11.3-28.2,3.8-28.2,3.8s0-9.4-1.9-16.9c-3.8-16.9-24.4-16.9-31.9,0
		c-3.8,5.6-5.6,31.9-7.5,46.9l5.6,5.6c0,0,7.5,11.3,20.7,22.5c18.8-3.8,45.1,5.6,52.6-9.4C366.4,182.3,338.2,180.4,338.2,180.4z"/>
</g>
</svg>
