<svg xmlns="http://www.w3.org/2000/svg" height="353.333" width="1032"><path d="M35.206 5.404c4.82 0 8.727 3.747 8.727 8.368s-3.908 8.368-8.727 8.368c-4.819 0-8.727-3.747-8.727-8.368s3.908-8.368 8.727-8.368zm75.985-2.06c4.77 0 8.638 3.708 8.638 8.283 0 4.573-3.868 8.282-8.638 8.282s-8.637-3.709-8.637-8.282c0-4.575 3.867-8.283 8.637-8.283z" fill="none" stroke="#231f20" stroke-width="3.78" stroke-miterlimit="22.926"/><path d="M73.885 34.06c4.286 0 7.761 3.333 7.761 7.441 0 4.11-3.475 7.442-7.76 7.442s-7.76-3.332-7.76-7.442c0-4.108 3.475-7.441 7.76-7.441z" fill="none" stroke="#231f20" stroke-width="3.024" stroke-miterlimit="22.926"/><path d="M2.587 42.661l9.589-.893 14.271-14.287 14.941.894 1.784 19.866 5.13 25.224-14.05.224-17.17-12.724 11.15-15.625-.673-17.792 13.829.827 16.31 21.89M25.667 67.327l-7.693 23.997m21.184-15.403l2.899 17.188M92.645 61.74l8.474-13.617 4.252-21.832 12.695.178 14.495 16.296-.892 21.43" fill="none" stroke="#231f20" stroke-width="5.291" stroke-miterlimit="22.926"/><path d="M96.53 92.128l10.48-35.27 9.812.67 6.467 14.732-.892 19.421m-63.838.312l7.359-15.625.446-20.76-13.826 5.804M86.88 91.324l-6.245-17.635V55.161l11.373-13.616" fill="none" stroke="#231f20" stroke-width="5.291" stroke-miterlimit="22.926"/><path d="M29.346 30.16l-1.115 15.18-8.473 14.956 15.61 10.937H46.07l-4.683-42.858-12.042 1.785" fill="#231f20" fill-rule="evenodd"/><path d="M29.346 30.16l-1.115 15.18-8.473 14.956 15.61 10.937H46.07l-4.683-42.858z" fill="none" stroke="#231f20" stroke-width=".288" stroke-miterlimit="22.926"/><path d="M103.794 28.703l-.223 19.42 2.007 6.697 13.157 1.339 4.237-21.652-7.136-6.475-12.042.67" fill="#231f20" fill-rule="evenodd"/><path d="M103.794 28.703l-.223 19.42 2.007 6.697 13.157 1.339 4.237-21.652-7.136-6.475z" fill="none" stroke="#231f20" stroke-width=".288" stroke-miterlimit="22.926"/><path d="M66.716 72.456l11.62-1.001.789-18.92-11.157-.451-1.252 20.372" fill="#231f20" fill-rule="evenodd"/><path d="M66.716 72.456l11.62-1.001.789-18.92-11.157-.451z" fill="none" stroke="#231f20" stroke-width=".288" stroke-miterlimit="22.926"/><path d="M339.261 62.95c.274-.026.575-.026.848-.054.684 1.697 2.054 2.93 3.423 4.408.493 2.601-4.107-3.915-4.27-4.353" fill="#231f20" fill-rule="evenodd"/><path d="M339.261 62.95c.274-.026.575-.026.848-.054.684 1.697 2.054 2.93 3.423 4.408.493 2.601-4.107-3.915-4.27-4.353z" fill="none" stroke="#231f20" stroke-width=".288" stroke-linecap="round" stroke-miterlimit="22.926"/><path d="M340.11 62.896c-1.069.41-2.683.247-3.751.904-3.56.767-6.874 2.436-10.871 1.999-2.081-.356-4.244-.548-6.079-1.616-2.929-1.396-6.024-2.711-8.324-5.284-.382-.275-.985-.878-1.341-1.37-4.49-5.558-5.45-12.513-6.845-19.769l-.931-3.477c-1.04-1.671-1.6-5.646-1.78-5.23-.587 1.364 39.073 33.679 39.921 33.843" fill="#231f20" fill-rule="evenodd"/><path d="M340.11 62.896c-1.069.41-2.683.247-3.751.904-3.56.767-6.874 2.436-10.871 1.999-2.081-.356-4.244-.548-6.079-1.616-2.929-1.396-6.024-2.711-8.324-5.284-.382-.275-.985-.878-1.341-1.37-4.49-5.558-5.45-12.513-6.845-19.769l-.931-3.477c-1.04-1.671-1.6-5.646-1.78-5.23-.587 1.364 39.073 33.679 39.921 33.843z" fill="none" stroke="#231f20" stroke-width=".288" stroke-linecap="round" stroke-miterlimit="22.926"/><path d="M364.67 22.865h.247zm-16.018 38.58c.657-.766 13.608-20.454 16.292-40.333.548 1.124.11 3.944.356 6.052.548 2.848 1.45 4.244 2.41 6.517 2.518 4.162 1.314 12.156-1.37 15.799l-.219.136c-2.136 4.053-6.516 6.927-10.404 9.063-2.136 1.122-4.682 1.806-7.065 2.766" fill="#231f20" fill-rule="evenodd"/><path d="M364.67 22.865h.247m-16.265 38.58c.657-.766 13.608-20.454 16.292-40.333.548 1.124.11 3.944.356 6.052.548 2.848 1.45 4.244 2.41 6.517 2.518 4.162 1.314 12.156-1.37 15.799l-.219.136c-2.136 4.053-6.516 6.927-10.404 9.063-2.136 1.122-4.682 1.806-7.065 2.766z" fill="none" stroke="#231f20" stroke-width=".288" stroke-linecap="round" stroke-miterlimit="22.926"/><path d="M344.6 67.14c.055.027-.028.301 0 .493-.795.876-1.177 3.696-1.533 4.955-1.862 3.45-2.766 7.723-4.683 11.364-1.04 2.628-2.683 5.75-4.463 7.967-.246.165-.465-.164-.712-.274-.054-.437.63-.985.986-1.697 2.218-2.136 6.818-14.21 8.188-17.496.629-1.343.684-2.903 1.177-4.27.081-.358-.165-.603 0-.96.164-.027.437.082.712-.082h.328" fill="#231f20" fill-rule="evenodd"/><path d="M344.6 67.14c.055.027-.028.301 0 .493-.795.876-1.177 3.696-1.533 4.955-1.862 3.45-2.766 7.723-4.683 11.364-1.04 2.628-2.683 5.75-4.463 7.967-.246.165-.465-.164-.712-.274-.054-.437.63-.985.986-1.697 2.218-2.136 6.818-14.21 8.188-17.496.629-1.343.684-2.903 1.177-4.27.081-.358-.165-.603 0-.96.164-.027.437.082.712-.082zm3.532-12.13h0" fill="none" stroke="#231f20" stroke-width=".288" stroke-linecap="round" stroke-miterlimit="22.926"/><path d="M348.79 61.088c-.029.083.355-.055.218.192-1.095 1.917-4.49 8.105-4.627 5.915l4.408-6.107" fill="#231f20" fill-rule="evenodd"/><path d="M348.79 61.088c-.029.083.355-.055.218.192-1.095 1.917-4.49 8.105-4.627 5.915z" fill="none" stroke="#231f20" stroke-width=".288" stroke-linecap="round" stroke-miterlimit="22.926"/><path d="M303.665 32.612c4.19 2.957 9.338.412 14.348.959 3.998-.466 7.503.904 10.898 2.245 2.601 1.177 5.12 2.93 6.845 5.367.63.876 1.341 1.533 1.835 2.492 2.929 4.189 3.696 9.418 3.477 14.949-.275.876 0 1.67-.493 2.464-.492 1.561.11 2.301-1.204 1.808-9.01-7.584-22.398-15.963-31.79-25.63-1.478-1.723-3.422-2.9-4.901-4.735-.603-.548-2.328-2.711-2.19-3.45.574.848 1.915 2.82 3.175 3.531" fill="#231f20" fill-rule="evenodd"/><path d="M303.665 32.612c4.19 2.957 9.338.412 14.348.959 3.998-.466 7.503.904 10.898 2.245 2.601 1.177 5.12 2.93 6.845 5.367.63.876 1.341 1.533 1.835 2.492 2.929 4.189 3.696 9.418 3.477 14.949-.275.876 0 1.67-.493 2.464-.492 1.561.11 2.301-1.204 1.808-9.01-7.584-22.398-15.963-31.79-25.63-1.478-1.723-3.422-2.9-4.901-4.735-.603-.548-2.328-2.711-2.19-3.45.574.848 1.915 2.82 3.175 3.531z" fill="none" stroke="#231f20" stroke-width=".288" stroke-linecap="round" stroke-miterlimit="22.926"/><path d="M348.844 61.199c-.164.136-.164-4.93-.684-6.19-.876-4.434-1.616-9.966.3-15.77 1.78-4.326 5.45-7.667 8.735-10.214.11-.026 7.256-3.86 7.832-7.94-2.41 19.742-16.019 39.948-16.183 40.114" fill="#231f20" fill-rule="evenodd"/><path d="M348.844 61.199c-.164.136-.164-4.93-.684-6.19-.876-4.434-1.616-9.966.3-15.77 1.78-4.326 5.45-7.667 8.735-10.214.11-.026 7.256-3.86 7.832-7.94-2.41 19.742-16.019 39.948-16.183 40.114z" fill="none" stroke="#231f20" stroke-width=".288" stroke-linecap="round" stroke-miterlimit="22.926"/><path d="M344.517 67.688c-.793.985-1.533 4.928-1.533 4.928 0 .219-4.71 11.773-4.71 11.773m-4.189 7.421c.439-.055 4.218-7.174 4.108-7.283" fill="none" stroke="#231f20" stroke-width="1.92" stroke-linecap="round" stroke-miterlimit="22.926"/><path d="M447.907 62.45c-.02-6.11-1.81-11.24-5.327-15.386-3.537-4.167-8.687-7.173-15.427-9.021l-9.904-2.711c-2.261-.63-4.068-1.297-5.385-2.044-1.336-.728-2.3-1.612-2.87-2.615-.569-1.001-.843-2.2-.825-3.596.02-1.866.512-3.497 1.474-4.913.964-1.415 2.3-2.515 4.009-3.301 1.71-.806 3.695-1.199 5.955-1.219 2.024 0 4.049.197 6.033.63 1.985.411 4.048 1.08 6.17 2.005 2.142.922 4.442 2.121 6.9 3.614l7.78-11.79a40.232 40.232 0 00-8.057-4.442 48.78 48.78 0 00-9.354-2.83 50.955 50.955 0 00-9.943-.982c-4.344.02-8.313.628-11.89 1.847-3.597 1.219-6.682 2.968-9.295 5.208-2.595 2.26-4.599 4.913-6.034 8.017-1.414 3.086-2.122 6.526-2.142 10.279 0 2.3.294 4.5.865 6.603a23.178 23.178 0 002.555 5.896c1.454 2.456 3.498 4.52 6.132 6.21 2.633 1.67 5.973 3.066 10.021 4.166l9.08 2.476c3.656.982 6.348 2.338 8.116 4.068 1.75 1.729 2.633 3.91 2.613 6.545 0 3.675-1.217 6.445-3.654 8.35-2.418 1.889-5.994 2.85-10.731 2.85-2.73 0-5.345-.275-7.801-.824a43.054 43.054 0 01-7.311-2.28c-2.397-.983-4.873-2.163-7.408-3.499l-6.132 12.854c2.77 1.572 5.719 2.908 8.843 4.028a60.135 60.135 0 009.552 2.516c3.242.589 6.425.884 9.55.884 5.11-.019 9.747-.668 13.895-1.966 4.145-1.316 7.703-3.164 10.67-5.601 2.987-2.416 5.267-5.325 6.858-8.705 1.593-3.38 2.399-7.154 2.419-11.32m63.436-4.599c0-3.241-.236-6.19-.727-8.804-.492-2.632-1.259-5.03-2.28-7.192a26.684 26.684 0 00-3.95-6.053c-2.594-3.066-5.58-5.346-8.98-6.839-3.4-1.493-7.233-2.24-11.537-2.24-4.088.02-7.782.767-11.102 2.26a24.042 24.042 0 00-8.55 6.427c-2.397 2.77-4.225 6.092-5.522 9.962-1.278 3.872-1.926 8.196-1.946 12.951.02 4.756.668 9.06 1.927 12.892 1.276 3.832 3.104 7.115 5.483 9.845a23.833 23.833 0 008.568 6.29c3.321 1.473 7.034 2.201 11.142 2.221 3.086 0 5.856-.355 8.294-1.023 2.417-.668 4.598-1.632 6.504-2.869a25.802 25.802 0 005.129-4.481 28.026 28.026 0 004.265-6.367c1.12-2.299 1.946-4.835 2.476-7.625.551-2.791.806-5.915.806-9.355zm-17.215-.117c0 4.736-.335 8.626-1.023 11.634-.668 3.007-1.748 5.227-3.184 6.642-1.453 1.434-3.301 2.142-5.581 2.122a9.163 9.163 0 01-3.124-.55 9.318 9.318 0 01-2.868-1.65c-.865-.728-1.533-1.652-2.025-2.752-.648-1.533-1.14-3.596-1.494-6.15-.334-2.555-.51-5.582-.51-9.06 0-2.988.137-5.582.432-7.783.274-2.2.688-4.087 1.218-5.66.668-1.905 1.71-3.399 3.144-4.48 1.415-1.081 3.086-1.632 4.992-1.65 1.435 0 2.732.274 3.911.845a7.745 7.745 0 012.928 2.338c1.061 1.355 1.867 3.36 2.397 6.034.531 2.692.787 6.052.787 10.12m55.065 30.304l-2.712-9.434a4.748 4.748 0 01-.984.196c-.236.04-.51.04-.785.04a4.072 4.072 0 01-1.867-.432 3.043 3.043 0 01-1.317-1.218c-.235-.394-.412-.846-.57-1.336-.137-.512-.235-1.219-.314-2.123-.079-.904-.117-2.143-.137-3.735-.04-1.592-.04-3.674-.04-6.249V16.701c0-2.81-.019-5.168-.079-7.113a89.47 89.47 0 00-.275-4.933 40.366 40.366 0 00-.472-3.636l-16.153 3.656c.196 1.788.353 3.576.472 5.364.117 1.789.216 3.714.275 5.778.058 2.063.078 4.402.078 7.016v45.042c0 2.122.02 3.91.059 5.326.04 1.415.099 2.594.216 3.538.099.942.236 1.768.432 2.496.177.726.413 1.453.708 2.2.648 1.69 1.632 3.165 2.987 4.382 1.337 1.239 2.948 2.182 4.834 2.85 1.887.669 3.951 1.022 6.211 1.022 1.71 0 3.38-.137 4.972-.432a23.228 23.228 0 004.461-1.218m25.232.234V26.488l-15.8 2.476v59.31zm1.887-76.996c-.019-1.828-.452-3.478-1.296-4.952a9.575 9.575 0 00-3.42-3.498c-1.435-.864-3.045-1.316-4.835-1.336-1.828.02-3.497.472-4.972 1.336a10.015 10.015 0 00-3.577 3.498c-.884 1.474-1.336 3.124-1.355 4.952.019 1.828.471 3.479 1.336 4.952a9.99 9.99 0 003.459 3.499c1.455.865 3.085 1.316 4.875 1.336 1.826-.02 3.477-.47 4.952-1.336a9.783 9.783 0 003.497-3.499c.864-1.473 1.317-3.124 1.336-4.952m66.267 76.996c-.275-.569-.531-1.356-.806-2.357-.256-.983-.492-2.319-.708-3.99-.216-1.65-.393-3.753-.53-6.327a205.01 205.01 0 01-.196-9.375V3.494L624.656 1.02v20.753c0 1.199.02 2.397.079 3.616.04 1.199.098 2.279.177 3.223.059.962.137 1.67.216 2.122a14.413 14.413 0 00-4.835-2.594c-1.748-.551-3.714-.826-5.896-.826-3.852.02-7.349.787-10.493 2.319-3.164 1.533-5.876 3.715-8.156 6.525-2.299 2.81-4.048 6.171-5.287 10.062-1.237 3.89-1.866 8.194-1.886 12.93.02 6.29 1.042 11.714 3.085 16.272 2.025 4.579 4.893 8.118 8.628 10.612 3.715 2.476 8.155 3.735 13.284 3.774 2.712 0 5.228-.412 7.527-1.258 2.32-.825 4.441-2.102 6.388-3.812.117.806.234 1.494.392 2.024.138.55.314 1.06.55 1.512zm-17.687-15.681c-.53.648-1.199 1.257-2.044 1.847a12.28 12.28 0 01-2.75 1.454 8.982 8.982 0 01-2.989.59c-2.73.02-4.912-.491-6.504-1.572-1.612-1.082-2.77-2.89-3.458-5.424-.688-2.515-1.023-5.915-1.003-10.219 0-4.481.353-8.136 1.061-10.985.707-2.85 1.808-4.974 3.302-6.328 1.493-1.356 3.42-2.044 5.777-2.024 1.416 0 2.83.314 4.265.962 1.415.648 2.87 1.631 4.343 2.928v28.771m81.832 9.078c-1.75-1.297-3.027-2.574-3.852-3.791a9.893 9.893 0 01-1.573-4.128c-.216-1.512-.294-3.36-.235-5.522l.353-20.281c.039-2.121.02-3.852-.04-5.15-.058-1.295-.176-2.377-.353-3.222a18.957 18.957 0 00-.668-2.476c-1.199-3.38-3.479-5.973-6.799-7.763-3.341-1.808-7.548-2.712-12.657-2.73-2.75 0-5.443.274-8.116.844-2.672.57-5.463 1.454-8.39 2.692a76.359 76.359 0 00-3.715 1.632 44.066 44.066 0 00-3.066 1.532 53.213 53.213 0 00-3.006 1.789l6.72 11.32c3.242-2.201 6.328-3.872 9.257-5.052 2.928-1.179 5.659-1.788 8.195-1.788 1.905-.019 3.38.256 4.401.825 1.023.571 1.73 1.514 2.123 2.83.392 1.317.569 3.086.549 5.306v2.478a19.583 19.583 0 00-1.807-.099c-.57-.02-1.14-.02-1.729-.02-9.61-.02-16.861 1.67-21.716 5.07-4.853 3.4-7.29 8.627-7.29 15.682 0 4.03.805 7.43 2.397 10.239 1.592 2.81 3.91 4.933 6.996 6.406 3.085 1.475 6.878 2.202 11.358 2.222 2.496 0 4.756-.295 6.82-.866 2.063-.549 3.832-1.376 5.326-2.437a22.01 22.01 0 001.828-1.453 38.263 38.263 0 001.826-1.73c.806 1.552 1.946 2.967 3.46 4.226 1.494 1.277 3.183 2.298 5.031 3.085zm-21.107-19.809l-.236 12.971c-1.198 1.316-2.496 2.319-3.91 3.047-1.415.706-2.85 1.08-4.344 1.08-1.355 0-2.535-.334-3.576-1.002-1.042-.649-1.867-1.573-2.476-2.752-.59-1.178-.884-2.554-.904-4.146-.02-2.378.432-4.244 1.374-5.582.944-1.336 2.516-2.28 4.679-2.829 2.161-.55 5.05-.807 8.685-.787h.708m67.799-34.076c-.805-.354-1.513-.629-2.103-.806a9.563 9.563 0 00-1.768-.392c-.59-.079-1.258-.099-2.025-.099-1.964.02-3.812.432-5.521 1.219-1.73.766-3.302 1.808-4.756 3.105a28.409 28.409 0 00-3.871 4.284c-.119-1.71-.393-3.263-.807-4.657a17.612 17.612 0 00-1.67-3.951l-14.15 3.773c.67 1.73 1.199 4.088 1.612 7.075.412 2.988.61 6.524.628 10.612v40.325h15.802V45.591c1.473-1.711 3.006-2.988 4.617-3.814a10.624 10.624 0 015.05-1.257 9.94 9.94 0 012.38.275 9.9 9.9 0 012.22.904l4.362-13.914m23.465 60.488V26.488l-15.801 2.476v59.31zm1.887-76.996c-.02-1.828-.452-3.478-1.297-4.952a9.575 9.575 0 00-3.42-3.498c-1.435-.864-3.046-1.316-4.834-1.336-1.829.02-3.498.472-4.972 1.336a9.994 9.994 0 00-3.577 3.498c-.884 1.474-1.336 3.124-1.356 4.952.02 1.828.472 3.479 1.336 4.952a9.99 9.99 0 003.459 3.499c1.454.865 3.085 1.316 4.874 1.336 1.827-.02 3.478-.47 4.952-1.336a9.783 9.783 0 003.498-3.499c.865-1.473 1.317-3.124 1.337-4.952m59.545 57.895c0-2.004-.276-3.87-.806-5.581a14.726 14.726 0 00-2.495-4.676 16.247 16.247 0 00-2.419-2.556c-.922-.806-2.141-1.572-3.654-2.279-1.514-.708-3.499-1.376-5.955-2.005l-7.31-1.887c-2.731-.688-4.697-1.493-5.857-2.456-1.16-.944-1.729-2.161-1.69-3.675.04-1.788.728-3.222 2.104-4.284 1.374-1.042 3.222-1.592 5.561-1.612 1.493 0 2.987.138 4.5.452 1.532.295 3.144.767 4.835 1.415a56.401 56.401 0 015.521 2.496l5.19-10.612a80.337 80.337 0 00-5.917-2.673c-2.102-.864-4.441-1.572-6.996-2.123-2.574-.55-5.464-.844-8.666-.864-4.698.02-8.804.845-12.283 2.476-3.497 1.632-6.21 3.93-8.136 6.859-1.925 2.948-2.888 6.406-2.928 10.357 0 1.316.139 2.633.413 3.97a19.213 19.213 0 001.179 3.773c.51 1.198 1.12 2.22 1.828 3.104.727.885 1.71 1.749 2.928 2.594a24.912 24.912 0 003.97 2.202c1.434.648 2.83 1.08 4.186 1.336l7.075 1.297c3.182.57 5.521 1.435 7.054 2.613 1.514 1.16 2.279 2.772 2.26 4.815-.02 1.317-.373 2.476-1.081 3.499-.707 1.021-1.67 1.846-2.87 2.436-1.198.59-2.554.885-4.067.905-2.319-.02-4.696-.393-7.154-1.121a48.745 48.745 0 01-7.074-2.634c-2.24-1.041-4.166-2.062-5.816-3.085l-5.66 11.556c4.421 2.299 8.666 4.028 12.734 5.208 4.068 1.16 7.959 1.75 11.674 1.75 5.188-.02 9.706-.925 13.56-2.674 3.85-1.75 6.857-4.185 9-7.31 2.142-3.145 3.222-6.82 3.262-11.006m55.417 12.263l-7.191-9.551-.944.825c-1.926 1.71-3.772 2.948-5.522 3.754-1.749.806-3.517 1.198-5.325 1.198a9.051 9.051 0 01-3.93-.904c-1.258-.609-2.3-1.433-3.145-2.514-1.002-1.278-1.769-3.146-2.28-5.622-.53-2.456-.786-5.66-.786-9.589 0-4.697.354-8.55 1.081-11.556.727-2.987 1.867-5.188 3.38-6.623 1.513-1.414 3.439-2.122 5.797-2.102 1.494 0 3.047.432 4.678 1.258 1.65.806 3.262 1.964 4.873 3.458l7.665-10.376a45.241 45.241 0 00-2.182-1.827 22.007 22.007 0 00-1.768-1.297 21.366 21.366 0 00-1.946-1.12c-1.69-.886-3.537-1.554-5.581-2.024a27.977 27.977 0 00-6.092-.688c-1.71 0-3.459.196-5.248.55a29.177 29.177 0 00-5.188 1.572c-1.67.668-3.183 1.454-4.539 2.358-2.378 1.612-4.501 3.714-6.348 6.308-1.866 2.574-3.321 5.68-4.401 9.276-1.061 3.596-1.612 7.724-1.632 12.361.02 6.544 1.061 12.145 3.125 16.764 2.063 4.637 5.05 8.195 8.96 10.65 3.912 2.457 8.648 3.695 14.21 3.715 2.869 0 5.521-.314 7.94-.962a26.595 26.595 0 006.798-2.811 23.32 23.32 0 001.848-1.219c.55-.393 1.1-.825 1.69-1.336.57-.512 1.238-1.16 2.004-1.926m58.957 6.838V46.061c0-1.906-.04-3.458-.137-4.716a24.934 24.934 0 00-.472-3.341 26.107 26.107 0 00-.924-3.144c-.648-1.77-1.71-3.301-3.203-4.599-1.495-1.277-3.301-2.26-5.424-2.948-2.123-.706-4.481-1.061-7.055-1.061-2.064 0-4.146.276-6.23.825a27.77 27.77 0 00-5.955 2.24c-1.887.983-3.517 2.123-4.912 3.42 0-.256.019-.649.059-1.218.038-.55.078-1.179.117-1.867.04-.668.059-1.336.059-1.985V15.64c0-1.945-.039-3.832-.118-5.66a88.147 88.147 0 00-.353-5.07c-.157-1.553-.355-2.889-.59-4.009l-16.154 3.774c.236.844.452 1.985.628 3.418.177 1.435.315 3.047.413 4.835.079 1.788.138 3.636.138 5.541v69.804h16.036V45a22.943 22.943 0 013.95-2.85 21.48 21.48 0 014.363-1.965c1.473-.47 2.87-.726 4.185-.726 2.222-.04 3.794.589 4.756 1.866.944 1.278 1.396 3.4 1.376 6.387v40.561h15.447m66.148-25.233v-3.655c0-4.185-.275-7.92-.844-11.201-.57-3.263-1.455-6.15-2.635-8.647-1.178-2.496-2.692-4.697-4.538-6.564-1.318-1.336-2.89-2.496-4.716-3.438a25.106 25.106 0 00-5.975-2.163 29.483 29.483 0 00-6.76-.765c-3.99 0-7.547.648-10.652 1.984-3.085 1.336-5.876 3.38-8.332 6.15a26.822 26.822 0 00-4.324 6.407c-1.1 2.339-1.925 4.933-2.436 7.803-.53 2.888-.787 6.13-.787 9.728.02 4.754.688 9.058 2.024 12.89 1.336 3.834 3.243 7.115 5.739 9.846 2.495 2.733 5.503 4.834 9 6.289 3.499 1.475 7.428 2.201 11.772 2.221 4.225 0 8.215-.688 11.948-2.064 3.753-1.376 7.35-3.478 10.808-6.308l-6.13-9.433c-2.418 2.004-4.894 3.519-7.449 4.52a21.25 21.25 0 01-7.88 1.493c-4.088-.018-7.232-1.297-9.413-3.812-2.201-2.516-3.303-6.132-3.321-10.809v-.472zm-16.39-11.555H984.17v-.236c.02-4.205.846-7.428 2.458-9.688 1.63-2.24 3.949-3.38 6.976-3.4 1.592 0 2.948.295 4.088.884 1.16.591 2.102 1.475 2.869 2.654a9.96 9.96 0 011.12 2.358c.275.826.472 1.788.59 2.87.118 1.08.177 2.377.177 3.852v.706" fill="#231f20"/><path d="M56.114 186.553h-29.36V118.4H9.893v81.83h43.273l2.948-13.677m59.31 7.075c-1.749-1.297-3.026-2.575-3.852-3.793a9.861 9.861 0 01-1.572-4.127c-.216-1.513-.295-3.36-.236-5.523l.354-20.28c.04-2.122.02-3.852-.04-5.149-.058-1.296-.176-2.377-.353-3.223a19.048 19.048 0 00-.668-2.476c-1.199-3.381-3.479-5.974-6.8-7.762-3.34-1.808-7.546-2.712-12.656-2.732a38.64 38.64 0 00-8.116.845c-2.672.57-5.463 1.453-8.391 2.692a76.165 76.165 0 00-3.714 1.63 44.75 44.75 0 00-3.066 1.534c-.963.53-1.966 1.12-3.007 1.788l6.72 11.32c3.244-2.201 6.329-3.872 9.257-5.05 2.928-1.18 5.66-1.789 8.195-1.789 1.906-.02 3.38.255 4.402.826 1.022.569 1.73 1.513 2.123 2.829.392 1.317.569 3.085.55 5.307v2.476a20.11 20.11 0 00-1.808-.099c-.57-.02-1.14-.02-1.73-.02-9.61-.019-16.86 1.67-21.715 5.07-4.854 3.4-7.291 8.627-7.291 15.683 0 4.028.806 7.428 2.398 10.239 1.59 2.81 3.91 4.932 6.996 6.407 3.085 1.473 6.878 2.201 11.359 2.221 2.495 0 4.755-.296 6.819-.865 2.063-.551 3.832-1.376 5.325-2.438.59-.412 1.2-.904 1.828-1.453a37.81 37.81 0 001.828-1.73c.805 1.553 1.945 2.967 3.458 4.225 1.494 1.277 3.184 2.3 5.032 3.085zm-21.106-19.81l-.236 12.971c-1.199 1.316-2.496 2.319-3.91 3.046-1.416.708-2.85 1.081-4.344 1.081-1.356 0-2.535-.335-3.576-1.003-1.042-.648-1.868-1.572-2.477-2.75-.589-1.18-.884-2.556-.904-4.147-.019-2.379.433-4.245 1.376-5.581.943-1.338 2.516-2.28 4.677-2.83 2.162-.55 5.05-.806 8.686-.786h.708m81.006 26.411v-44.098c0-1.868-.099-3.499-.276-4.875-.196-1.394-.49-2.632-.904-3.733-.648-1.75-1.69-3.263-3.105-4.579-1.415-1.297-3.104-2.318-5.07-3.046-1.965-.727-4.068-1.08-6.328-1.1-1.808 0-3.656.236-5.561.668a23.712 23.712 0 00-5.287 1.926 58.678 58.678 0 00-3.576 2.142 179.805 179.805 0 00-3.381 2.338c0-1.238-.196-2.496-.59-3.773a18.665 18.665 0 00-1.65-3.773l-14.031 4.009c.707 2.024 1.237 4.225 1.591 6.623.354 2.417.53 4.913.53 7.526v43.746h15.8v-42.684c1.849-1.671 3.754-2.987 5.66-3.951 1.926-.963 3.695-1.453 5.307-1.473 1.375-.02 2.436.236 3.203.766.787.531 1.337 1.454 1.65 2.751.315 1.277.473 3.065.453 5.327v39.264h15.565m68.152-.001c-.275-.569-.53-1.355-.805-2.358-.255-.981-.491-2.319-.707-3.99-.216-1.649-.393-3.753-.53-6.327a203.742 203.742 0 01-.198-9.374v-62.729l-15.681-2.476v20.752c0 1.199.018 2.399.078 3.616.039 1.199.098 2.28.176 3.223.06.964.138 1.672.216 2.122a14.411 14.411 0 00-4.834-2.594c-1.748-.55-3.714-.824-5.895-.824-3.852.018-7.35.785-10.495 2.318-3.164 1.534-5.876 3.714-8.156 6.524-2.298 2.811-4.048 6.171-5.285 10.063-1.239 3.89-1.867 8.195-1.887 12.93.02 6.289 1.042 11.713 3.086 16.273 2.024 4.578 4.893 8.116 8.626 10.612 3.715 2.476 8.156 3.733 13.286 3.773 2.712 0 5.226-.413 7.526-1.259 2.319-.824 4.442-2.102 6.387-3.812.119.807.236 1.494.393 2.024.138.551.315 1.062.55 1.514zm-17.685-15.682c-.531.65-1.2 1.259-2.046 1.848-.844.59-1.748 1.08-2.75 1.453a8.943 8.943 0 01-2.987.591c-2.732.02-4.913-.492-6.505-1.572-1.611-1.081-2.771-2.89-3.459-5.424-.688-2.516-1.023-5.916-1.003-10.22 0-4.48.354-8.136 1.062-10.985.708-2.85 1.808-4.972 3.301-6.328 1.493-1.356 3.42-2.044 5.779-2.024 1.414 0 2.829.314 4.264.962 1.414.65 2.869 1.632 4.344 2.93v28.769M333.09 139.86h-16.27l-4.599 21.579a166.56 166.56 0 00-1.16 5.934c-.373 2.043-.688 3.97-.983 5.816-.274 1.828-.53 3.459-.726 4.855-.196 1.375-.335 2.417-.432 3.085 0-.02-.119-.609-.315-1.769-.216-1.14-.51-2.712-.904-4.696a393.85 393.85 0 00-1.415-6.82c-.55-2.555-1.16-5.227-1.848-8.057l-4.834-19.927h-14.856l-5.66 20.28a143.065 143.065 0 00-1.868 7.607 190.94 190.94 0 00-1.375 6.74c-.373 2.004-.65 3.616-.845 4.794-.178 1.2-.275 1.808-.275 1.848 0-.02-.079-.452-.217-1.277-.138-.845-.314-1.945-.55-3.321-.236-1.376-.492-2.89-.786-4.54-.295-1.671-.61-3.322-.923-4.991-.315-1.672-.63-3.204-.944-4.619l-4.952-23.229-15.683 1.77 16.508 59.309h14.739l3.065-12.382c.355-1.433.767-3.104 1.239-4.97.472-1.887.943-3.814 1.453-5.818.492-2.004.944-3.91 1.396-5.718.434-1.828.807-3.4 1.102-4.716.313-1.416.549-2.556.706-3.382.158-.825.295-1.572.394-2.2.098-.629.196-1.376.314-2.202.118.766.216 1.416.295 1.985.079.55.176 1.121.275 1.73.098.609.216 1.375.373 2.3.236 1.355.55 2.849.904 4.5.373 1.65.787 3.34 1.219 5.07.433 1.73.865 3.42 1.297 5.05l5.424 20.753h14.503l17.216-60.371m24.052 60.37v-61.785l-15.8 2.476v59.31zm1.887-76.995c-.019-1.828-.452-3.479-1.298-4.954a9.568 9.568 0 00-3.418-3.497c-1.435-.865-3.047-1.317-4.835-1.336-1.828.019-3.499.47-4.972 1.336a10 10 0 00-3.577 3.497c-.884 1.475-1.336 3.126-1.355 4.954.019 1.826.47 3.477 1.336 4.952a9.987 9.987 0 003.459 3.497c1.453.865 3.085 1.317 4.873 1.337 1.828-.02 3.479-.472 4.952-1.337 1.475-.864 2.633-2.044 3.499-3.497.865-1.475 1.317-3.126 1.336-4.952m50.23 16.506c-.806-.353-1.513-.628-2.102-.805a9.581 9.581 0 00-1.77-.393c-.589-.079-1.257-.098-2.024-.098a13.406 13.406 0 00-5.521 1.218c-1.73.766-3.303 1.809-4.756 3.105a28.62 28.62 0 00-3.872 4.284c-.119-1.71-.393-3.261-.805-4.657a17.663 17.663 0 00-1.671-3.95l-14.15 3.774c.669 1.729 1.2 4.086 1.613 7.074.412 2.987.608 6.524.628 10.612v40.326h15.8v-42.684c1.474-1.71 3.006-2.987 4.618-3.814a10.639 10.639 0 015.051-1.257c.864 0 1.67.099 2.379.276.726.196 1.473.49 2.22.903l4.362-13.914m39.619 59.192l-2.005-9.433a60.52 60.52 0 01-3.36.905c-.864.176-1.631.275-2.299.275-1.79.02-3.184-.236-4.187-.807-1.001-.549-1.689-1.532-2.082-2.946-.394-1.415-.59-3.382-.571-5.916v-30.303h10.141l4.01-10.848h-14.151c0-3.105.079-6.21.256-9.355.157-3.144.393-6.112.688-8.922l-16.036 4.009a55.639 55.639 0 00-.413 4.383 108.287 108.287 0 00-.158 4.558c-.018 1.594-.018 3.382-.018 5.327h-6.014v10.848h6.014v32.779c0 1.376.018 2.516.038 3.42.02.924.059 1.709.138 2.338.078.648.177 1.238.314 1.788.158.551.335 1.14.57 1.77.649 1.788 1.75 3.321 3.282 4.657 1.534 1.316 3.4 2.339 5.62 3.065 2.222.727 4.678 1.102 7.371 1.12a31.27 31.27 0 006.248-.648c2.103-.432 4.305-1.12 6.604-2.064m54.947-17.803c0-2.006-.275-3.873-.806-5.582a14.736 14.736 0 00-2.496-4.677 16.288 16.288 0 00-2.417-2.555c-.924-.805-2.141-1.572-3.655-2.28-1.513-.708-3.498-1.376-5.954-2.004l-7.311-1.887c-2.732-.688-4.697-1.493-5.857-2.457-1.159-.943-1.728-2.161-1.69-3.675.04-1.788.727-3.222 2.103-4.284 1.376-1.041 3.223-1.592 5.561-1.61 1.494 0 2.988.137 4.502.452 1.532.294 3.144.765 4.833 1.414a55.834 55.834 0 015.523 2.496l5.188-10.612a80.551 80.551 0 00-5.915-2.673c-2.103-.865-4.441-1.572-6.997-2.123-2.574-.549-5.463-.845-8.666-.864-4.697.019-8.804.844-12.282 2.476-3.499 1.631-6.211 3.931-8.136 6.859-1.927 2.948-2.89 6.405-2.928 10.356 0 1.316.137 2.633.412 3.97a19.262 19.262 0 001.178 3.773 13.224 13.224 0 001.828 3.105c.728.884 1.71 1.75 2.928 2.595a24.817 24.817 0 003.971 2.2 18.427 18.427 0 004.185 1.337l7.075 1.296c3.184.57 5.523 1.436 7.056 2.615 1.512 1.158 2.279 2.77 2.259 4.814-.019 1.316-.374 2.476-1.08 3.498-.708 1.022-1.671 1.848-2.87 2.437-1.198.59-2.554.884-4.068.904-2.318-.02-4.697-.393-7.153-1.12a49.058 49.058 0 01-7.075-2.633c-2.24-1.042-4.166-2.064-5.817-3.086l-5.66 11.555c4.421 2.3 8.667 4.03 12.735 5.208 4.068 1.16 7.958 1.75 11.673 1.75 5.188-.02 9.708-.925 13.56-2.673 3.852-1.749 6.859-4.186 9-7.31 2.143-3.146 3.224-6.82 3.263-11.006m55.418 12.263l-7.193-9.552-.943.827c-1.925 1.709-3.773 2.948-5.522 3.753-1.748.805-3.518 1.199-5.326 1.199a9.074 9.074 0 01-3.93-.904c-1.258-.61-2.299-1.435-3.144-2.515-1.002-1.279-1.768-3.145-2.28-5.621-.531-2.456-.786-5.66-.786-9.591 0-4.696.354-8.548 1.082-11.555.726-2.986 1.866-5.188 3.378-6.622 1.514-1.416 3.44-2.123 5.799-2.103 1.493 0 3.045.432 4.677 1.257 1.65.807 3.262 1.966 4.874 3.459l7.664-10.376a45.417 45.417 0 00-2.182-1.828 22.45 22.45 0 00-1.768-1.296 21.083 21.083 0 00-1.946-1.121c-1.69-.884-3.538-1.552-5.582-2.024a27.968 27.968 0 00-6.092-.688c-1.709 0-3.458.197-5.246.55a29.288 29.288 0 00-5.188 1.572 24.654 24.654 0 00-4.54 2.359c-2.378 1.61-4.5 3.713-6.347 6.308-1.868 2.575-3.323 5.68-4.403 9.276-1.061 3.596-1.61 7.723-1.63 12.361.02 6.544 1.06 12.144 3.124 16.763 2.064 4.639 5.05 8.195 8.961 10.65 3.91 2.458 8.647 3.697 14.208 3.715 2.87 0 5.523-.314 7.94-.962a26.49 26.49 0 006.8-2.811 23.165 23.165 0 001.847-1.217 22.75 22.75 0 001.69-1.338c.57-.51 1.238-1.158 2.004-1.925m58.956 6.838v-42.21c0-1.907-.038-3.459-.137-4.716a24.732 24.732 0 00-.47-3.342 26.694 26.694 0 00-.925-3.145c-.649-1.768-1.709-3.301-3.204-4.597-1.493-1.279-3.301-2.262-5.424-2.948-2.122-.708-4.48-1.062-7.054-1.062-2.064 0-4.147.275-6.23.826a27.77 27.77 0 00-5.954 2.24c-1.887.982-3.518 2.122-4.914 3.42 0-.256.02-.65.059-1.219.04-.55.079-1.179.119-1.867a35.18 35.18 0 00.058-1.985v-12.027c0-1.945-.04-3.832-.118-5.66a88.147 88.147 0 00-.354-5.07c-.157-1.552-.353-2.888-.589-4.01l-16.155 3.774c.236.845.452 1.985.63 3.42a72.56 72.56 0 01.413 4.834c.079 1.788.137 3.636.137 5.542v69.804h16.036v-43.274a23.01 23.01 0 013.95-2.85 21.525 21.525 0 014.364-1.964c1.473-.472 2.868-.728 4.185-.728 2.221-.039 3.793.59 4.756 1.868.943 1.277 1.395 3.398 1.375 6.386v40.562H618.2m65.796-6.604c-1.748-1.297-3.025-2.575-3.85-3.793a9.844 9.844 0 01-1.574-4.127c-.216-1.513-.295-3.36-.236-5.523l.355-20.28c.038-2.122.02-3.852-.04-5.149-.059-1.296-.176-2.377-.354-3.223a19.112 19.112 0 00-.668-2.476c-1.198-3.381-3.478-5.974-6.8-7.762-3.34-1.808-7.545-2.712-12.656-2.732-2.75 0-5.442.274-8.116.845-2.672.57-5.462 1.453-8.39 2.692a76.439 76.439 0 00-3.715 1.63 45.321 45.321 0 00-3.067 1.534c-.962.53-1.964 1.12-3.005 1.788l6.72 11.32c3.243-2.201 6.328-3.872 9.257-5.05 2.928-1.18 5.659-1.789 8.195-1.789 1.905-.02 3.38.255 4.401.826 1.023.569 1.73 1.513 2.123 2.829.393 1.317.57 3.085.55 5.307v2.476a20.142 20.142 0 00-1.807-.099c-.571-.02-1.14-.02-1.731-.02-9.61-.019-16.86 1.67-21.715 5.07-4.854 3.4-7.29 8.627-7.29 15.683 0 4.028.805 7.428 2.397 10.239 1.592 2.81 3.91 4.932 6.996 6.407 3.085 1.473 6.879 2.201 11.359 2.221 2.496 0 4.756-.296 6.82-.865 2.062-.551 3.832-1.376 5.325-2.438a21.89 21.89 0 001.828-1.453c.628-.55 1.237-1.14 1.828-1.73.804 1.553 1.945 2.967 3.457 4.225 1.495 1.277 3.184 2.3 5.032 3.085zm-21.105-19.81l-.236 12.971c-1.199 1.316-2.496 2.319-3.911 3.046-1.415.708-2.85 1.081-4.344 1.081-1.356 0-2.535-.335-3.576-1.003-1.041-.648-1.867-1.572-2.476-2.75-.59-1.18-.884-2.556-.904-4.147-.02-2.379.432-4.245 1.375-5.581.944-1.338 2.516-2.28 4.677-2.83 2.163-.55 5.05-.806 8.687-.786h.708m66.856-57.189c-2.378-1.335-4.718-2.318-6.996-2.907-2.28-.59-4.718-.884-7.272-.866-4.147 0-7.644.748-10.554 2.222-2.888 1.454-5.089 3.576-6.602 6.366-1.514 2.791-2.28 6.171-2.299 10.16 0 1.376.059 2.771.157 4.207.118 1.435.255 2.79.432 4.048h-5.777v10.848h5.424v49.523h15.445v-49.523h11.202l4.01-10.848h-15.329v-8.608c.019-2.201.63-3.89 1.788-5.05 1.179-1.18 2.79-1.789 4.815-1.789.609 0 1.198.039 1.769.158.55.098 1.199.294 1.925.589.747.295 1.671.708 2.791 1.257l5.07-9.786m34.313 82.302l-2.004-9.433a60.827 60.827 0 01-3.362.905c-.865.176-1.63.275-2.298.275-1.788.02-3.184-.236-4.187-.807-1.001-.549-1.69-1.532-2.083-2.946-.393-1.415-.589-3.382-.57-5.916v-30.303h10.141l4.01-10.848h-14.151c0-3.105.078-6.21.256-9.355.157-3.144.393-6.112.688-8.922l-16.036 4.009a55.631 55.631 0 00-.412 4.383 106.08 106.08 0 00-.158 4.558c-.02 1.594-.02 3.382-.02 5.327h-6.013v10.848h6.013v32.779c0 1.376.02 2.516.039 3.42.02.924.06 1.709.139 2.338.077.648.176 1.238.313 1.788.157.551.335 1.14.57 1.77.649 1.788 1.75 3.321 3.282 4.657 1.533 1.316 3.4 2.339 5.62 3.065 2.221.727 4.679 1.102 7.37 1.12a31.26 31.26 0 006.249-.648c2.104-.432 4.305-1.12 6.604-2.064" fill="#008a5b"/><path d="M468.607 287.127c-.176-1.02-1.89-2.093-5.16-3.279-4.023-1.491-6.62-2.852-7.816-4.1-1.195-1.247-1.851-2.65-1.988-4.207-.315-3.326 1.276-6.386 4.769-9.2 3.476-2.815 6.837-4.36 10.048-4.655 3.153-.294 4.867.933 5.103 3.683.078.73-.228 1.423-.9 2.059-.652.655-1.248 1.002-1.748 1.041-.211.02-.576-.075-1.135-.286-.539-.21-.961-.305-1.23-.286-1.674.158-3.46.873-5.343 2.184-1.9 1.311-2.783 2.697-2.646 4.197.06.73.484 1.403 1.255 2.017.77.613 2.31 1.341 4.581 2.183 3.367 1.224 5.639 2.412 6.775 3.563 1.137 1.132 1.775 2.458 1.912 3.938.256 2.73-1.393 5.176-4.908 7.336-3.533 2.16-7.59 3.457-12.184 3.87-3.384.314-5.193-.759-5.41-3.2-.098-.904.19-1.693.842-2.406.652-.694 1.421-1.08 2.305-1.159.346-.038.923.038 1.692.228.77.21 1.482.286 2.116.246 1.75-.176 3.556-.622 5.439-1.357 1.884-.734 3.075-1.544 3.63-2.41m23.429-36.937c.137 1.327-.36 2.54-1.474 3.657-1.093 1.098-2.092 1.696-2.977 1.775-1.115.098-2.153-.265-3.097-1.128-.963-.845-1.484-1.748-1.563-2.69-.137-1.345.207-2.461.993-3.386.767-.905 1.978-1.426 3.574-1.583 1.249-.099 2.306.168 3.154.84.848.67 1.311 1.497 1.39 2.516zm-11.432 24.29v.02c.281-3.463.412-5.423.373-5.904-.137-1.385.072-2.577.59-3.578.517-.982 1.322-1.522 2.4-1.62 1.287-.118 2.289.092 3.058.629.77.517 1.195 1.17 1.255 1.92.058.75-.131 2.307-.627 4.712l-.095.635c-.704 3.693-1.064 6.694-1.058 9.001.004 2.308.065 4.153.202 5.557.099 1.134.448 2.634 1.01 4.517.077.327.134.615.154.826.04.443-.305 1.06-1.053 1.849-.748.809-1.593 1.252-2.536 1.331-2.461.236-3.868-1.53-4.203-5.26-.294-3.192-.205-7.095.286-11.73.093-1.04.169-2 .244-2.905m24.604 18.103c-3.076.276-5.5-.335-7.271-1.87-1.753-1.554-2.777-3.802-3.052-6.801-.413-4.71 1.037-9.981 4.372-15.795 3.316-5.834 6.828-8.917 10.52-9.25 1.768-.159 3.365.588 4.772 2.24 1.428 1.65 2.219 3.418 2.396 5.32.157 1.808-.07 3.04-.665 3.733-.615.694-1.23 1.06-1.844 1.119-1.808.157-2.983-.994-3.507-3.474-.388-1.807-.928-2.69-1.621-2.631-1.462.137-3.207 2.39-5.216 6.76-2.011 4.369-2.87 8.12-2.594 11.234.236 2.519 1.719 3.67 4.448 3.415 3-.276 5.939-1.627 8.819-4.037 1.344-1.156 2.439-1.774 3.265-1.852 1.038-.079 1.598.381 1.695 1.4.137 1.442-1.357 3.464-4.43 6.085-3.09 2.602-6.453 4.071-10.087 4.404m25.797-16.896c2.565-6.08 4.884-10.296 6.956-12.608 2.053-2.292 4.243-3.566 6.53-3.763 1.595-.157 2.962.283 4.117 1.28 1.157.998 2.181 3.765 3.093 8.32.41 2.173.835 3.903 1.28 5.229.425 1.307.89 2.478 1.392 3.477.483 1 1.119 1.921 1.947 2.785.617.671.964 1.344 1.024 2.017.058.673-.21 1.327-.804 1.944-.596.616-1.306.964-2.152 1.042-1.654.157-3.214-.628-4.678-2.318-1.445-1.689-2.45-4.129-2.976-7.3-.661-3.884-1.204-6.344-1.648-7.4-.445-1.058-1.08-1.537-1.868-1.477-1.096.098-2.996 2.467-5.736 7.068-2.741 4.62-4.676 8.277-5.824 11.01-.688 2.04-1.224 3.368-1.646 4.003-.422.617-.979.964-1.651 1.022-1.155.1-2.097-.091-2.867-.59-.75-.498-1.176-1.248-1.274-2.285-.058-.5.054-2.116.318-4.809.999-10.213 1.574-21.04 1.763-32.48.052-2.751.452-4.694 1.2-5.81.767-1.118 1.496-1.696 2.208-1.755 1-.098 1.885.208 2.675.898.809.71 1.272 1.748 1.39 3.113.196 2.077.163 4.518-.101 7.288-.244 2.79-.793 7.232-1.628 13.33-.512 3.692-.87 6.616-1.04 8.77m72.629-2.927c-4.216 7.297-8.785 11.17-13.688 11.623-1.98.176-3.636-.455-5.002-1.894-1.35-1.459-2.142-3.38-2.359-5.803-.45-4.883 1.097-9.905 4.644-15.104 3.567-5.18 7.387-7.956 11.483-8.33 2.345-.216 4.077.243 5.174 1.394.854-6.27 1.327-10.175 1.458-11.732.302-2.886.588-4.809.874-5.79.306-.962.804-1.752 1.514-2.33.73-.578 1.364-.906 1.921-.946.961-.098 1.732.228 2.31.976.56.73.907 1.71 1.025 2.902.038.519-.227 2.058-.818 4.636-.993 4.155-1.79 9.137-2.413 14.965-.643 5.827-.787 10.443-.492 13.827.295 3.23 1.163 4.786 2.587 4.648.73-.06 1.48-.33 2.266-.793.788-.463 1.344-.695 1.691-.733.923-.08 1.424.42 1.523 1.477.117 1.288-.707 2.655-2.435 4.12-1.747 1.445-3.457 2.237-5.11 2.394-1.807.157-3.27-.666-4.427-2.51-1.139-1.844-1.72-4.17-1.726-6.997zm-4.432-14.105c-2.46.235-4.841 2.336-7.16 6.321-2.318 3.966-3.35 7.525-3.056 10.62.158 1.808.91 2.652 2.255 2.535 2.288-.197 4.823-2.49 7.621-6.823 2.78-4.35 4.062-7.7 3.846-10.064-.059-.692-.407-1.326-1.062-1.882-.654-.557-1.482-.786-2.444-.707m35.062-21.19c.137 1.327-.36 2.54-1.474 3.657-1.094 1.098-2.093 1.696-2.977 1.774-1.115.099-2.153-.264-3.097-1.128-.964-.844-1.484-1.747-1.564-2.689-.136-1.346.206-2.462.993-3.386.768-.905 1.979-1.427 3.575-1.584 1.249-.099 2.306.169 3.154.84.848.671 1.311 1.497 1.39 2.516zm-11.432 24.29v.019c.281-3.462.412-5.423.373-5.904-.137-1.384.072-2.577.59-3.578.515-.982 1.323-1.522 2.4-1.62 1.287-.118 2.287.092 3.058.63.77.516 1.195 1.17 1.253 1.919.059.75-.129 2.308-.625 4.713l-.095.635c-.704 3.693-1.064 6.693-1.058 9 .004 2.308.065 4.154.202 5.558.099 1.134.447 2.633 1.01 4.516.077.327.134.615.154.827.04.443-.305 1.059-1.053 1.848-.75.81-1.593 1.253-2.536 1.332-2.461.235-3.868-1.53-4.203-5.26-.294-3.192-.206-7.096.286-11.731.094-1.039.168-2 .244-2.904m40.405 5.38c.177 1.942-1.241 4.426-4.255 7.412-3.032 3.006-6.605 4.686-10.72 5.06-3.152.294-5.73-.47-7.734-2.293-1.984-1.823-3.143-4.513-3.476-8.07-.472-5.229.94-10.308 4.218-15.237 3.279-4.91 7.024-7.552 11.234-7.945 2.096-.196 3.828.32 5.233 1.528 1.388 1.209 2.16 2.746 2.336 4.573.295 3.249-.987 6.482-3.845 9.718-2.84 3.236-6.663 5.628-11.447 7.195-.537.174-.787.54-.748 1.078.099.903.561 1.73 1.428 2.459.867.747 1.964 1.053 3.29.935 3.769-.334 7.32-2.61 10.658-6.828.653-.809 1.305-1.252 1.979-1.312 1.134-.098 1.75.478 1.849 1.727zm-19.255-3.25c2.903-.87 5.379-2.356 7.452-4.495 2.092-2.12 3.05-3.986 2.912-5.544-.058-.615-.29-1.133-.657-1.517a1.647 1.647 0 00-1.404-.497c-1.615.137-3.324 1.506-5.07 4.067-1.762 2.58-2.854 5.236-3.233 7.986m77.316-27.284l-8.593 1.228c-2.999.448-5.555.953-7.69 1.515-2.131.562-3.285.949-3.458 1.16-.153.213-.23.809-.208 1.77-.017.943-.205 2.616-.567 5.02-.304 1.827-.454 3.328-.433 4.482 1.192-.119 2.903-.391 5.132-.837 2.21-.447 3.787-.835 4.69-1.144 2.633-.89 4.689-1.413 6.17-1.55 2.96-.257 4.5.471 4.677 2.24.118 1.288-.226 2.212-.996 2.79-.786.559-2.036 1.023-3.785 1.373a61.013 61.013 0 00-3.593.834 59.49 59.49 0 01-2.634.582c-5.113 1.068-8.13 1.823-9.033 2.248h-.039c-.308.116-.518.347-.652.713-.133.346-.285 1.75-.472 4.231-.188 2.482-.242 4.212-.162 5.174.173.691.636.998 1.385.92.904-.079 3.25-.545 7.016-1.38 3.787-.853 6.112-1.415 7.015-1.686 2.518-.774 4.17-1.2 4.96-1.26 2.402.111 3.674 1.108 3.85 2.973.079.865-.132 1.539-.668 2.04-1.786 1.023-4.324 1.778-7.61 2.283-2.558.39-5.632.993-9.227 1.808-3.19.986-6.227 1.607-9.11 1.882-1.5.138-2.635-.09-3.367-.686-.732-.574-1.215-1.535-1.467-2.9l-.176-.904c-.039-.153.076-.75.324-1.769.533-2.366.985-7.56 1.335-15.578.369-8.04.513-12.5.434-13.385 0-.02-.076-.096-.192-.21-.154-.097-.405-.443-.752-1.019a4.079 4.079 0 01-.638-1.825c-.039-.346-.02-.615.037-.827.037-.404.403-.828 1.093-1.29.692-.445 1.364-.715 1.999-.774.884-.078 1.77-.1 2.672-.063 1.557-.156 6.556-1.166 14.993-3.067 2.807-.64 4.267-.95 4.402-.97l.404-.06c3.325-.563 5.116.376 5.332 2.779.04.461-.21 1.039-.747 1.751-.556.732-1.093 1.194-1.65 1.388m15.406 19.692l.403-.942c1.836-4.734 3.944-8.642 6.284-11.723 2.358-3.062 4.778-4.72 7.258-4.937 1.903-.177 3.5.204 4.81 1.144 1.309.94 2.022 2.112 2.141 3.553.097.904-.055 1.693-.399 2.386-.345.673-.901 1.04-1.613 1.118-1.173.099-2.27-.284-3.31-1.147-.731-.556-1.29-.805-1.674-.785-1.404.137-3.552 2.525-6.447 7.185-2.894 4.66-4.424 9.738-4.605 15.239-.073 1.576-.417 2.73-1.07 3.405-.651.694-1.594 1.1-2.805 1.217-1.288.118-2.27-.534-2.946-1.955-.675-1.422-1.18-3.786-1.475-7.112a221.198 221.198 0 01-.396-5.538c-.119-2.192-.143-4.884-.073-8.076.018-.846.017-1.48.016-1.96-.004-1.847.07-3.117.222-3.828.154-.693.594-1.386 1.323-2.06.73-.656 1.575-1.042 2.536-1.12 1-.1 1.79.13 2.367.649.578.537.906 1.151.965 1.844.079.865-.168 2.73-.759 5.578-.209.98-.36 2.135-.454 3.48l-.299 4.385m46.589 5.704c-1.061-1.594-1.99-4.689-2.826-9.244-.836-4.748-1.975-7.053-3.398-6.935-1.346.137-3.456 2.833-6.31 8.127-2.855 5.274-4.559 9.143-5.092 11.586-.115.731-.364 1.347-.786 1.847-.421.52-.844.79-1.286.83-2.846.256-4.387-.914-4.622-3.51-.08-.884.012-2.904.296-6.077.356-4.116.27-9.077-.261-14.902-.077-.885.208-1.866.899-2.925.67-1.078 1.438-1.656 2.285-1.735 1.095-.098 1.941.112 2.577.592.636.498 1.043 1.901 1.259 4.247.176 1.768-.048 5.268-.653 10.461 3.192-9.87 7.277-15.032 12.277-15.484 4.325-.393 7.177 2.793 8.556 9.54 1.379 6.882 2.559 10.282 3.539 10.204.422-.04.904-.195 1.46-.426.653-.29 1.173-.445 1.557-.484.904-.079 1.405.401 1.503 1.459.078.942-.439 2.02-1.59 3.195-1.132 1.194-2.63 1.87-4.496 2.047-2.172.197-3.808-.608-4.928-2.413h.04m24.157-20.966c-.174.02-.495 2.155-1.007 6.386-.511 4.251-.716 6.828-.638 7.693.138 1.538.388 2.595.775 3.171.385.576.944.845 1.693.766a8.568 8.568 0 002.96-.813c.942-.463 2.132-1.389 3.591-2.815.903-.886 1.67-1.368 2.343-1.427.557-.04 1 .075 1.346.343.367.289.56.634.599 1.038.157 1.653-1.012 3.636-3.47 5.968-2.475 2.312-5.185 3.625-8.126 3.88-2.48.236-4.423-.318-5.848-1.661-1.445-1.343-2.276-3.38-2.53-6.11-.237-2.519.253-7.654 1.449-15.367-1.172.233-1.999.37-2.479.428l-.577.04c-.866.078-1.77-.112-2.694-.591-.942-.48-1.464-1.343-1.581-2.574-.139-1.576.668-2.443 2.437-2.6l5.978-.781c.592-2.328 1.144-5.367 1.694-9.099.323-2.328 1.396-3.58 3.242-3.756 1.038-.098 1.866.15 2.501.726.636.575 1.003 1.248 1.061 1.998.02.307-.493 3.27-1.597 8.886 5.901-1.069 9.15-1.614 9.727-1.672.98-.098 1.653-.004 2 .245.348.27.56.808.618 1.634.158 1.654-1.148 2.848-3.934 3.546l-9.532 2.518m41.661 9.475c.177 1.942-1.24 4.425-4.253 7.412-3.032 3.006-6.607 4.685-10.72 5.059-3.154.294-5.732-.47-7.735-2.293-1.984-1.822-3.143-4.512-3.477-8.069-.472-5.23.941-10.308 4.22-15.238 3.278-4.91 7.022-7.551 11.233-7.944 2.096-.197 3.827.32 5.233 1.528 1.387 1.208 2.159 2.745 2.336 4.572.295 3.249-.988 6.482-3.846 9.718-2.839 3.236-6.662 5.628-11.446 7.195-.538.174-.788.54-.748 1.078.098.904.56 1.73 1.427 2.459.868.748 1.964 1.053 3.29.936 3.769-.335 7.322-2.61 10.66-6.828.651-.81 1.305-1.252 1.978-1.312 1.133-.098 1.75.478 1.848 1.727zm-19.255-3.25c2.903-.871 5.38-2.356 7.452-4.495 2.094-2.12 3.051-3.987 2.912-5.544-.058-.615-.289-1.134-.656-1.518a1.648 1.648 0 00-1.404-.497c-1.616.138-3.324 1.506-5.069 4.067-1.764 2.58-2.855 5.236-3.235 7.987m57.153-13.342c-.173.019-.495 2.154-1.006 6.385-.51 4.251-.717 6.828-.639 7.693.138 1.538.39 2.596.775 3.172.387.576.944.844 1.695.766a8.561 8.561 0 002.958-.814c.943-.463 2.134-1.389 3.591-2.815.903-.886 1.67-1.368 2.343-1.427.558-.04 1.001.075 1.348.344.365.287.558.633.597 1.037.157 1.653-1.012 3.636-3.468 5.967-2.476 2.313-5.185 3.625-8.127 3.882-2.48.235-4.424-.319-5.849-1.662-1.444-1.344-2.276-3.38-2.53-6.11-.237-2.518.254-7.653 1.45-15.367-1.173.233-2 .37-2.48.428l-.577.04c-.864.079-1.77-.112-2.694-.59-.942-.48-1.464-1.345-1.581-2.575-.137-1.576.668-2.444 2.437-2.6l5.979-.782c.592-2.327 1.144-5.366 1.693-9.098.323-2.328 1.396-3.58 3.243-3.756 1.037-.098 1.865.15 2.501.726.636.576 1.003 1.248 1.062 1.998.02.307-.494 3.269-1.598 8.886 5.9-1.069 9.15-1.613 9.727-1.673.98-.097 1.653-.002 2 .247.347.268.559.806.619 1.632.157 1.655-1.148 2.849-3.936 3.547l-9.532 2.519m41.662 9.475c.178 1.94-1.241 4.425-4.254 7.411-3.032 3.005-6.606 4.685-10.72 5.059-3.154.295-5.731-.47-7.735-2.292-1.984-1.823-3.143-4.513-3.477-8.07-.472-5.23.941-10.308 4.22-15.238 3.278-4.91 7.022-7.551 11.233-7.944 2.096-.196 3.827.319 5.233 1.528 1.387 1.209 2.16 2.745 2.336 4.572.295 3.249-.986 6.482-3.846 9.718-2.839 3.236-6.662 5.629-11.446 7.195-.538.174-.788.54-.748 1.079.098.903.562 1.729 1.428 2.458.867.748 1.963 1.053 3.29.936 3.768-.335 7.321-2.61 10.658-6.828.652-.81 1.306-1.253 1.979-1.312 1.133-.098 1.75.478 1.85 1.727zm-19.254-3.25c2.901-.872 5.378-2.358 7.452-4.496 2.09-2.12 3.049-3.986 2.91-5.544-.057-.615-.289-1.134-.656-1.518a1.646 1.646 0 00-1.404-.497c-1.616.138-3.324 1.506-5.069 4.068-1.764 2.58-2.855 5.236-3.233 7.986m36.534-30.558c.138 1.326-.36 2.538-1.473 3.656-1.095 1.099-2.093 1.696-2.977 1.775-1.115.097-2.155-.265-3.098-1.128-.964-.845-1.484-1.748-1.564-2.69-.136-1.346.207-2.462.994-3.386.768-.905 1.978-1.427 3.573-1.584 1.25-.099 2.308.17 3.156.84.848.672 1.31 1.497 1.39 2.517zm-11.432 24.29v.019c.282-3.462.412-5.424.374-5.905-.138-1.383.072-2.577.589-3.578.516-.982 1.323-1.521 2.4-1.62 1.288-.118 2.288.092 3.059.63.769.517 1.194 1.17 1.253 1.92.059.75-.13 2.307-.625 4.712l-.095.635c-.704 3.693-1.064 6.694-1.059 9 .004 2.308.066 4.154.203 5.558.099 1.134.447 2.633 1.008 4.516a6.4 6.4 0 01.156.827c.04.443-.305 1.059-1.053 1.848-.75.81-1.595 1.253-2.536 1.332-2.462.236-3.868-1.53-4.203-5.26-.295-3.192-.207-7.096.285-11.73.094-1.039.168-2.001.244-2.905m22.124-31.1c2.019-.177 3.136.84 3.332 3.033.099 1.018.062 2.114-.128 3.306-.17 1.194-.664 4.155-1.501 8.888-.61 3.443-.967 7.155-1.093 11.155-.108 4-.064 7.095.133 9.326.216 2.384.645 5.171 1.305 8.42.175.865.271 1.422.291 1.634.099 1.134-.227 2.135-.975 3-.748.887-1.612 1.37-2.573 1.467-1.327.119-2.328-.437-2.984-1.628-.656-1.21-1.121-3.325-1.397-6.381-.59-6.557-.528-14.363.204-23.403.733-9.039 1.51-14.406 2.353-16.099.824-1.695 1.84-2.6 3.033-2.717m34.619 35.019c.176 1.941-1.241 4.425-4.255 7.411-3.032 3.006-6.605 4.685-10.72 5.059-3.153.295-5.73-.469-7.734-2.292-1.984-1.823-3.143-4.513-3.478-8.07-.47-5.229.942-10.308 4.22-15.238 3.279-4.91 7.024-7.55 11.234-7.944 2.096-.196 3.828.32 5.233 1.528 1.388 1.208 2.16 2.746 2.336 4.572.295 3.25-.987 6.482-3.845 9.718-2.84 3.236-6.662 5.629-11.447 7.195-.539.175-.788.54-.748 1.079.097.903.561 1.73 1.428 2.458.867.749 1.963 1.054 3.29.936 3.767-.335 7.32-2.61 10.658-6.828.652-.809 1.305-1.253 1.979-1.311 1.134-.099 1.75.477 1.849 1.726zm-19.255-3.25c2.902-.872 5.379-2.357 7.452-4.496 2.092-2.12 3.05-3.986 2.912-5.543-.058-.616-.29-1.135-.657-1.519a1.648 1.648 0 00-1.404-.497c-1.616.138-3.324 1.507-5.07 4.068-1.763 2.58-2.854 5.236-3.233 7.986M1020 240.82c-1.061-1.593-1.99-4.688-2.825-9.243-.836-4.748-1.976-7.053-3.399-6.935-1.345.137-3.455 2.833-6.31 8.127-2.855 5.274-4.56 9.143-5.093 11.586-.113.731-.362 1.347-.785 1.848-.421.52-.844.79-1.287.829-2.844.255-4.385-.914-4.621-3.51-.079-.885.013-2.904.296-6.077.357-4.116.27-9.077-.26-14.902-.079-.885.208-1.866.897-2.924.672-1.079 1.439-1.658 2.286-1.736 1.096-.098 1.942.112 2.577.592.636.498 1.043 1.901 1.259 4.247.177 1.768-.047 5.268-.652 10.461 3.19-9.87 7.277-15.032 12.276-15.484 4.325-.394 7.178 2.793 8.556 9.54 1.378 6.882 2.558 10.282 3.54 10.204.422-.04.902-.195 1.46-.426.653-.29 1.172-.445 1.557-.484.903-.079 1.404.401 1.501 1.459.079.942-.437 2.02-1.589 3.195-1.132 1.194-2.63 1.87-4.496 2.047-2.172.197-3.808-.608-4.927-2.413h.039M277.237 3.453c-1.586 2.24-4.853 1.495-6.065 4.108.185.932.467 2.052 1.212 2.799 5.6 4.947 11.013 10.455 16.801 15.121l.934 4.386c-1.68 1.4-3.174 3.266-5.322 3.733l-21.185.373c-4.295 5.042-8.681 10.175-13.533 15.027-2.988 4.293-5.6 8.68-7.747 13.253-1.308 7-2.335 14.374-1.68 21.934.653 2.52 1.96 4.666 1.772 7.373-2.239.373-4.667.56-7 .747-1.773-8.4-2.893-17.174-3.733-25.947-.84.187-1.494 1.027-2.24 1.4-1.772 4.013-3.919 7.933-4.479 12.413l-.281 12.134c-2.427.186-4.852.28-7.372.28 1.306-7.094 1.306-14.934 1.866-22.4l.746-8.96c-8.026-1.4-16.519-1.867-24.359-3.734-1.213 1.96-2.241 4.2-3.36 6.44-2.053 5.134-2.333 11.294-1.961 17.267l1.773 5.787c1.028 1.68 2.055 3.36 2.988 5.133l-6.907.187-.466-.467c-4.48-9.147-7.187-19.04-11.387-28.373l-2.708 1.12-5.413 11.48c-1.119 4.854-1.4 11.2 0 15.866-2.519.187-5.134.374-7.559.282l.559-74.202-.092-.185-2.334.932-1.866 4.107-.654 8.121.654 14.092c-.654 5.32-.842 10.92-2.242 15.867-.185 1.213-.278 2.52-.746 3.64h-.186l-3.268-7.094c-.373-2.426.56-4.386.934-6.44l.841-5.32c.373-7.838.092-16.052.373-23.985l.56-3.36 3.734-3.361c6.625-.746 13.252.28 20.066 0l60.292-.374c6.348-.838 12.788-1.306 18.854-2.705l.094-.188c-.84-2.8-1.214-5.787-1.214-8.773 1.026-.094 1.866.84 2.613 1.68l1.307 1.586c1.121.094 2.24 0 3.174-.465l.467.279 3.547-3.452c3.358-.467 6.812-.934 10.358-.842l.84 1.68" fill="#231f20"/></svg>